# xmcd
#
# Track frame offsets:
#	150
#	18179
#	34777
#	45751
#	72811
#	87628
#	99806
#	115897
#	135003
#	150519
#	173370
#	190884
#	207202
#	224602
#	245723
#	264189
#	284224
#	308689
#
# Disc length: 4299 seconds
#
# Revision: 0
# Processed by: cddbd v1.5.2PL0 Copyright (c) Steve Scherf et al.
# Submitted via: EasyCDDAExtractor 10.0.2.1
#
DISCID=e910c912
DTITLE=SungEun Hong - The 6 Cello Suites BWV 1007-1012
DYEAR=2003
DGENRE=Classic
TTITLE0=No.2 In D Minor BWV 1008 - Prelude
TTITLE1=No.2 In D Minor BWV 1008 - Allemande
TTITLE2=No.2 In D Minor BWV 1008 - Courante
TTITLE3=No.2 In D Minor BWV 1008 - Sarabande
TTITLE4=No.2 In D Minor BWV 1008 - Menuet I and II
TTITLE5=No.2 In D Minor BWV 1008 - Gigue
TTITLE6=No.3 In C Major BWV 1009  - Prelude
TTITLE7=No.3 In C Major BWV 1009 - Allemande
TTITLE8=No.3 In C Major BWV 1009 - Courante
TTITLE9=No.3 In C Major BWV 1009 - Sarabande
TTITLE10=No.3 In C Major BWV 1009 - Menuet I and II
TTITLE11=No.3 In C Major BWV 1009 - Gigue
TTITLE12=No.4 In E Flat Major BWV 1010 - Prelude
TTITLE13=No.4 In E Flat Major BWV 1010 - Allemande
TTITLE14=No.4 In E Flat Major BWV 1010 - Courante
TTITLE15=No.4 In E Flat Major BWV 1010 - Sarabande
TTITLE16=No.4 In E Flat Major BWV 1010 - Menuet I and II
TTITLE17=No.4 In E Flat Major BWV 1010 /
EXTD=
EXTT0=
EXTT1=
EXTT2=
EXTT3=
EXTT4=
EXTT5=
EXTT6=
EXTT7=
EXTT8=
EXTT9=
EXTT10=
EXTT11=
EXTT12=
EXTT13=
EXTT14=
EXTT15=
EXTT16=
EXTT17=
PLAYORDER=
